<svg width="35" height="35" viewBox="0 0 35 35" fill="none" xmlns="http://www.w3.org/2000/svg">
<g clip-path="url(#clip0_96_16195)">
<mask id="mask0_96_16195" style="mask-type:luminance" maskUnits="userSpaceOnUse" x="0" y="0" width="35" height="35">
<path d="M35 17.5C35 7.83502 27.165 0 17.5 0C7.83502 0 0 7.83502 0 17.5C0 27.165 7.83502 35 17.5 35C27.165 35 35 27.165 35 17.5Z" fill="white"/>
</mask>
<g mask="url(#mask0_96_16195)">
<path d="M0 0H35V7H0V0Z" fill="#6D4C41"/>
<path d="M14 7H21V14H14V7Z" fill="#6D4C41"/>
<path d="M0 14H35V21H0V14Z" fill="#6D4C41"/>
<path d="M14 21H0V28H14V21ZM35 21H21V28H35V21Z" fill="#6D4C41"/>
<path d="M7 28H0V35H7V28ZM35 28H28V35H35V28Z" fill="#6D4C41"/>
</g>
</g>
<defs>
<clipPath id="clip0_96_16195">
<rect width="35" height="35" fill="white"/>
</clipPath>
</defs>
</svg>
