<svg width="27" height="27" viewBox="0 0 27 27" fill="none" xmlns="http://www.w3.org/2000/svg">
<path d="M9.92453 13.3396H9.17453C9.17453 13.7538 9.51031 14.0896 9.92453 14.0896V13.3396ZM9.92453 12.6604V11.9104C9.51031 11.9104 9.17453 12.2462 9.17453 12.6604H9.92453ZM18.0755 12.6604H18.8255C18.8255 12.2462 18.4897 11.9104 18.0755 11.9104V12.6604ZM18.0755 13.3396V14.0896C18.4897 14.0896 18.8255 13.7538 18.8255 13.3396H18.0755ZM9.92453 13.4104H18.0755V11.9104H9.92453V13.4104ZM17.3255 12.6604V13.3396H18.8255V12.6604H17.3255ZM10.6745 13.3396V12.6604H9.17453V13.3396H10.6745ZM18.0755 12.5896H9.92453V14.0896H18.0755V12.5896ZM22.25 13C22.25 17.5563 18.5563 21.25 14 21.25V22.75C19.3848 22.75 23.75 18.3848 23.75 13H22.25ZM14 21.25C9.44365 21.25 5.75 17.5563 5.75 13H4.25C4.25 18.3848 8.61522 22.75 14 22.75V21.25ZM5.75 13C5.75 8.44365 9.44365 4.75 14 4.75V3.25C8.61522 3.25 4.25 7.61522 4.25 13H5.75ZM14 4.75C18.5563 4.75 22.25 8.44365 22.25 13H23.75C23.75 7.61522 19.3848 3.25 14 3.25V4.75Z" fill="#DE3A3A"/>
</svg>
