<svg width="26" height="25" viewBox="0 0 26 25" fill="none" xmlns="http://www.w3.org/2000/svg">
<path d="M9.82703 9.66668C9.82703 9.03705 10.2064 7.77779 11.7241 7.77779H18.0475C19.5651 7.77779 19.9445 9.03705 19.9445 9.66668V18.4815C19.9445 19.1111 19.5651 20.3704 18.0475 20.3704H11.7241C10.2064 20.3704 9.82703 19.1111 9.82703 18.4815V9.66668Z" fill="white"/>
<path d="M15.8343 5.8889C16.045 5.8889 16.4666 5.76297 16.4666 5.25927C16.4666 4.75556 16.045 4.62964 15.8343 4.62964H10.7755C9.51086 4.62964 6.98151 5.38519 6.98151 8.40742V16.5926C6.98151 16.8025 7.10797 17.2222 7.61385 17.2222C8.11972 17.2222 8.24619 16.8025 8.24619 16.5926V8.40742C8.24619 7.56791 8.75206 5.8889 10.7755 5.8889H15.8343Z" fill="white"/>
</svg>
