<svg width="10" height="13" viewBox="0 0 10 13" fill="none" xmlns="http://www.w3.org/2000/svg">
<path fill-rule="evenodd" clip-rule="evenodd" d="M8.83721 4.47845C9.22481 4.47845 10 4.70426 10 5.60749V11.7043C10 12.6075 9.22481 12.8333 8.83721 12.8333H1.16279C0.775194 12.8333 0 12.6075 0 11.7043V5.60749C0 4.70426 0.775194 4.47845 1.16279 4.47845H1.97674V3.10211C1.97674 2.12362 2.5814 0.166626 5 0.166626C7.4186 0.166626 8.02326 2.12362 8.02326 3.10211V4.47845H8.83721ZM5 1.29566C6.48837 1.29566 6.86047 2.49996 6.86047 3.10211V4.47845H3.13953V3.10211C3.13953 2.49996 3.51163 1.29566 5 1.29566Z" fill="#60C255"/>
</svg>
