<svg width="24" height="24" viewBox="0 0 24 24" fill="none" xmlns="http://www.w3.org/2000/svg">
<path d="M13.3333 5.33332C13.3333 6.31516 12.5374 7.1111 11.5555 7.1111C10.5737 7.1111 9.77777 6.31516 9.77777 5.33332C9.77777 4.35148 10.5737 3.55554 11.5555 3.55554C12.5374 3.55554 13.3333 4.35148 13.3333 5.33332Z" fill="#333333"/>
<path d="M13.3333 11.5555C13.3333 12.5374 12.5374 13.3333 11.5555 13.3333C10.5737 13.3333 9.77777 12.5374 9.77777 11.5555C9.77777 10.5737 10.5737 9.77776 11.5555 9.77776C12.5374 9.77776 13.3333 10.5737 13.3333 11.5555Z" fill="#333333"/>
<path d="M13.3333 17.7778C13.3333 18.7596 12.5374 19.5555 11.5555 19.5555C10.5737 19.5555 9.77777 18.7596 9.77777 17.7778C9.77777 16.7959 10.5737 16 11.5555 16C12.5374 16 13.3333 16.7959 13.3333 17.7778Z" fill="#333333"/>
</svg>
