<svg width="16" height="16" viewBox="0 0 16 16" fill="none" xmlns="http://www.w3.org/2000/svg">
<path fill-rule="evenodd" clip-rule="evenodd" d="M3.18829 4.18829C3.43934 3.93724 3.84637 3.93724 4.09743 4.18829L7.5 7.59086L10.9026 4.18829C11.1536 3.93724 11.5607 3.93724 11.8117 4.18829C12.0628 4.43934 12.0628 4.84637 11.8117 5.09743L8.40914 8.5L11.8117 11.9026C12.0628 12.1536 12.0628 12.5607 11.8117 12.8117C11.5607 13.0628 11.1536 13.0628 10.9026 12.8117L7.5 9.40914L4.09743 12.8117C3.84637 13.0628 3.43934 13.0628 3.18829 12.8117C2.93724 12.5607 2.93724 12.1536 3.18829 11.9026L6.59086 8.5L3.18829 5.09743C2.93724 4.84637 2.93724 4.43934 3.18829 4.18829Z" fill="#3290EC"/>
</svg>
